# xmcd CD database file
#
# Track frame offsets:
#	150
#	14015
#	25322
#	38362
#	50670
#	64007
#	87727
#	100537
#	112430
#	125275
#	137327
#	148382
#	159980
#	171837
#	184115
#	197692
#	211287
#	224927
#	237435
#	256535
#	270972
#
# Disc length: 3931 seconds
#
# Revision: 2
# Processed by: cddbd v1.5.2PL0 Copyright (c) Steve Scherf et al.
# Submitted via: CDex 1.51
#
DISCID=350f5915
DTITLE=Various Artist - A Brief History of the Blues
DYEAR=2008
DGENRE=Blues
TTITLE0=Muddy Waters - I'm Ready
TTITLE1=Robert Johnson - Walkin' Blues
TTITLE2=Elmore James - Dust My Broom
TTITLE3=T-Bone Walker - Glamour Girl
TTITLE4=Mississippi John Hurt - Stack O'Lee
TTITLE5=Doyle Bramhall II with Erykah Badu - Oh Death
TTITLE6=John Lee Sonny Boy Williamson - Welfare Store Blues
TTITLE7=Junior Parker - Drivin' Wheel
TTITLE8=Big Mama Thornton - Hound Dog
TTITLE9=Little Walter - My Babe
TTITLE10=Howlin' Wolf - The Red Rooster
TTITLE11=Sonny Boy Williamson II - Don't Start Me To Talkin
TTITLE12=Otis Rush - All Your Love (I Miss Loving)
TTITLE13=Lightin' Hopkins - Coffee Blues
TTITLE14=John Lee Hooker - One Bourbon, One Scotch, One Beer
TTITLE15=Koko Taylor - Wang Dang Doodle
TTITLE16=B. B. King - Three O'Clock Blues
TTITLE17=Albert King - Born Under A Bad Sign
TTITLE18=Charlie Musselwhite and Jimmie Vaughan - Bad Boy
TTITLE19=Bessie Smith - St. Louis Blues
TTITLE20=Muddy Waters, Little Walter and Bo Diddley - Long Distance Call
EXTD=YEAR: 2008
EXTT0=
EXTT1=
EXTT2=
EXTT3=
EXTT4=
EXTT5=
EXTT6=
EXTT7=
EXTT8=
EXTT9=
EXTT10=
EXTT11=
EXTT12=
EXTT13=
EXTT14=
EXTT15=
EXTT16=
EXTT17=
EXTT18=
EXTT19=
EXTT20=
PLAYORDER=
